<svg height="16" viewBox="0 0 16 16" width="16" xmlns="http://www.w3.org/2000/svg"><path d="m3.44394881 6.08693427c-.35368889 0-.64025435.28656545-.64025435.64025435 0 .35368889.28656546.64025435.64025435.64025435.3536889 0 .64025435-.28656546.64025435-.64025435-.00038725-.35343073-.28682362-.6398671-.64025435-.64025435zm0 .95779985c-.17535999 0-.3175455-.14218551-.3175455-.3175455s.14218551-.31754551.3175455-.31754551.31754551.14218552.31754551.31754551c-.00038725.1752309-.1423146.31715825-.31754551.3175455zm6.27023289-4.24103966h-1.4373452c-.25222924.00038725-.45656848.20472649-.45695573.45695573v2.69139178c.00038725.25222923.20472649.45656847.45695573.45695572h1.43669978c.25222924-.00038725.45656852-.20472649.45695572-.45695572v-2.69074637c0-.25222923-.20408106-.45695572-.4563103-.45760114zm.1348923 3.14834751c0 .0744812-.0604111.1348923-.1348923.1348923h-1.4373452c-.0744812 0-.1348923-.0604111-.1348923-.1348923v-2.69074637c0-.0744812.0604111-.13489229.1348923-.13489229h1.43669978c.07448121 0 .1348923.06041109.1348923.13489229zm-4.71154916-4.67605119c-1.07365233.10759113-2.03564741.70976584-2.60167872 1.62838884-.08738956.14095922-.09164932.31819092-.0114239.46328082.08035451.14521898.23280217.23557746.39867451.23635196h2.25315317c.25255194-.00038725.45721389-.2050492.45760115-.45760114v-1.41411017c.00051633-.12908354-.05305334-.2524874-.14780066-.34013513-.0948764-.08687322-.22241093-.12908353-.3504618-.11617518zm.17619903 1.87171131c0 .07486845-.06066926.13553772-.13553772.13553772h-2.25315316c-.04905175.00129083-.09461824-.02555854-.11746602-.0690597-.02601034-.04304936-.02601034-.09700628 0-.14005564.51310706-.83355695 1.38571178-1.37990302 2.35964708-1.4773611h.01290836c.03227088.00012909.06338001.01226294.08713139.03420714.02878562.02607488.04517923.06312185.04517923.101976zm-1.66840474 1.39797472c-.58558747-.05356966-1.16820602.13018075-1.61709403.50987998-.44895255.37982831-.72674032.92391543-.77095143 1.5102774h-.69188777c-.02872109.00161355-.05505413-.01613544-.06454177-.04324298-.11940227-.33690804-.17961974-.69201685-.17813528-1.04944917.00354979-2.84306494 2.30736825-5.1468834 5.15043319-5.15043319 3.93704793 0 7.24674986 2.71075431 8.17421506 6.35736428.0074223.02762387.0320773.04711549.0606693.04776091h.2013703c.020008.00051633.0391769-.00826135.0518271-.02388046.0126501-.01549002.0174262-.03601431.0127147-.05550592-.9481186-3.81377315-4.39916702-6.64844766-8.50079646-6.64844766-3.02139385.00322709-5.46991495 2.45174819-5.47314204 5.47314204-.00141992.45114697.08629235.89816326.25816708 1.31536126l.02452587.05937843c.01000397.02433224.03375535.04014498.06002385.04001589h.91713854c.08551784 1.15942835 1.06184119 2.05010476 2.22423845 2.02906415 1.16239727-.02104062 2.10586885-.94644051 2.14937-2.10819236.0435657-1.16175184-.8280709-2.15504967-1.98556299-2.2630926zm-.2007249 4.04870519c-.75559049.00025817-1.43689341-.45469676-1.72616962-1.152716-.28927621-.69808377-.12953533-1.5016288.40467689-2.03590557.53440585-.53427676 1.33795088-.69401764 2.03590557-.40467689.69801924.28914713 1.15297417.97051458 1.152716 1.72610508-.00212987 1.03073205-.83710674 1.86570892-1.8678388 1.8678388l.00064542-.00064542z" stroke="#000" stroke-width=".5" transform="translate(1 3)"/></svg>